<?xml version="1.0" encoding="UTF-8" standalone="no"?>
<!-- Created with Inkscape (http://www.inkscape.org/) -->

<svg
   width="120.94489"
   height="120.94489"
   viewBox="0 0 32 32"
   version="1.1"
   id="svg5"
   sodipodi:docname="icon.svg"
   inkscape:version="1.1.1 (3bf5ae0d25, 2021-09-20)"
   xmlns:inkscape="http://www.inkscape.org/namespaces/inkscape"
   xmlns:sodipodi="http://sodipodi.sourceforge.net/DTD/sodipodi-0.dtd"
   xmlns="http://www.w3.org/2000/svg"
   xmlns:svg="http://www.w3.org/2000/svg">
  <sodipodi:namedview
     id="namedview7"
     pagecolor="#505050"
     bordercolor="#eeeeee"
     borderopacity="1"
     inkscape:pageshadow="0"
     inkscape:pageopacity="0"
     inkscape:pagecheckerboard="0"
     inkscape:document-units="px"
     showgrid="false"
     units="px"
     inkscape:zoom="0.38885732"
     inkscape:cx="-466.75217"
     inkscape:cy="-6.4290933"
     inkscape:window-width="1920"
     inkscape:window-height="1017"
     inkscape:window-x="2552"
     inkscape:window-y="195"
     inkscape:window-maximized="1"
     inkscape:current-layer="layer1" />
  <defs
     id="defs2" />
  <g
     inkscape:label="Layer 1"
     inkscape:groupmode="layer"
     id="layer1">
    <path
       style="fill:none;stroke:#000000;stroke-width:0.264583px;stroke-linecap:butt;stroke-linejoin:miter;stroke-opacity:1"
       d="m 15.564432,5.9536076 c -1.181514,0.012277 -2.430785,-0.040254 -3.572165,0.3402063 -0.838864,0.2796211 0.120452,0.027584 -0.595361,0.4252576 -0.15674,0.087078 -0.35543,0.079757 -0.510309,0.1701032 -0.384453,0.224264 -0.534129,0.4886259 -0.850515,0.7654639 C 9.7348262,7.9182368 9.5707049,7.9499122 9.2706177,8.2499992 7.8511607,9.6694561 7.0239357,11.656465 6.4639168,13.523195 6.23311,14.292551 6.0956256,15.192159 6.0386592,15.989689 c -0.030298,0.424177 0.038501,0.852262 0,1.275773 -0.1644737,1.809211 -0.36567,4.008119 0.8505155,5.52835 0.3644003,0.455501 1.2065227,1.347811 1.7010307,1.701031 0.3272091,0.233721 0.5399701,0.181968 0.9355669,0.340206 0.2354384,0.09418 0.4398504,0.260019 0.6804127,0.340207 0.527456,0.175818 1.156462,0.204064 1.70103,0.340206 1.997153,0.499288 3.946296,1.10993 6.03866,0.935567 0.414406,-0.03453 0.963499,-0.122713 1.360824,-0.255155 0.486749,-0.162249 0.213594,-0.138933 0.595361,-0.425258 0.472505,-0.354379 1.037579,-0.606667 1.530928,-0.935567 1.312521,-0.875014 2.518949,-1.611993 3.402061,-2.976803 0.548469,-0.847633 1.210914,-1.893163 1.445877,-2.891753 0.303281,-1.288949 -0.65357,-3.794544 -1.020619,-5.018041 C 25.006762,13.103303 24.836766,12.256007 24.664946,11.396906 24.503695,10.59065 24.509628,11.030787 24.32474,10.291236 24.259408,10.029908 24.276308,9.7691143 24.154637,9.5257723 23.970826,9.1581491 23.584576,8.7856076 23.304122,8.5051538 22.369346,7.5703788 21.258814,6.8613241 19.987112,6.4639168 19.763969,6.3941849 19.526864,6.372444 19.306699,6.2938139 18.984096,6.1785984 18.670584,6.0349183 18.371132,5.8685562 18.247218,5.7997151 18.163653,5.6631742 18.030926,5.6134016 c -0.106181,-0.039818 -0.227943,0.016036 -0.340206,0 -0.393596,-0.056228 -0.790819,-0.210721 -1.190721,-0.2551546 -0.281772,-0.031308 -0.568745,0.031308 -0.850516,0 C 14.237059,5.201311 11.875131,5.2613542 10.631442,6.0386592 9.7086234,6.6154209 8.9381068,7.5554788 8.4201024,8.5051538 8.2089361,8.715348 8.2852287,9.0300556 8.1649478,9.2706177 8.1015542,9.3974052 7.9731868,9.4840366 7.9097932,9.6108239 7.6630245,10.104361 7.6512498,10.63822 7.399484,11.141752 7.0605797,11.81956 6.5641733,12.426605 6.2087622,13.097937 c -0.5287859,0.998818 -1.1721273,2.439982 -1.3608244,3.572165 -0.086092,0.516553 0,1.189863 0,1.70103 0,0.707917 0.0096,1.430763 0.170103,2.126289 0.1760431,0.762853 1.0990549,2.033519 1.6159793,2.636598 0.1269741,0.484999 0.658033,0.533334 0.9355668,0.850515 0.1088578,0.124409 0.1579237,0.291565 0.2551547,0.425258 0.2172808,0.298761 1.4694287,1.77524 1.7860823,1.956185 0.073846,0.0422 0.1717548,-0.01668 0.2551546,0 0.4077335,0.08155 0.8092265,0.35771 1.1907215,0.510308 0.879567,0.351827 2.251801,0.373536 3.146907,0.170104 0.297751,-0.06767 0.55907,-0.249129 0.850516,-0.340207 0.164599,-0.05143 0.345132,-0.0355 0.510309,-0.08505 0.12144,-0.03643 0.21588,-0.145238 0.340206,-0.170103 0.1668,-0.03336 0.34252,0.02796 0.510309,0 0.176865,-0.02948 0.333897,-0.138029 0.510309,-0.170103 0.139466,-0.02536 0.288959,0.03894 0.425258,0 0.0771,-0.02203 0.09565,-0.140323 0.170103,-0.170103 0.184198,-0.07368 0.73065,-0.108628 0.935567,-0.170104 0.796311,-0.238893 1.526624,-0.639502 2.296392,-0.935567 0.192637,-0.07409 0.40627,-0.08738 0.59536,-0.170103 0.03334,-0.01459 1.241806,-0.688951 1.360825,-0.765463 1.770166,-1.137965 2.536324,-3.035881 2.976804,-5.018041 0.0943,-0.424347 0.129613,-0.857302 0.255154,-1.275773 0.150634,-0.502113 0.326994,-1.042087 0.51031,-1.530928 0.521625,-1.391004 1.275773,-2.556864 1.275773,-4.082474 0,-0.311856 0.08567,-0.63571 0,-0.935567 -0.02808,-0.09829 -0.129837,-0.1612 -0.170104,-0.255154 C 27.374226,10.545878 27.22657,10.093722 26.961338,9.6958755 26.715689,9.3274028 26.376532,9.0295362 26.110823,8.6752571 25.825185,8.2944068 25.709363,7.9822422 25.345359,7.6546386 24.943871,7.2932998 24.395206,7.0612981 23.984534,6.7190715 23.814431,6.5773191 23.715847,6.3653331 23.559276,6.2087622 23.25367,5.9031566 22.759255,5.4685457 22.368555,5.2731954 22.264003,5.2209195 22.130968,5.2441179 22.028349,5.1881437 21.814247,5.0713612 21.651121,4.8719527 21.432988,4.7628861 21.30369,4.6982371 21.146728,4.7175482 21.00773,4.6778348 20.576717,4.5546879 20.140039,4.4380686 19.731957,4.2525769 19.581464,4.184171 19.457193,4.0658282 19.306699,3.9974223 18.406073,3.5880465 16.81714,3.2912222 15.819586,3.4020617 15.321991,3.4573498 14.897259,3.6931218 14.458762,3.9123709 13.947598,4.1679526 13.404874,4.359808 12.927834,4.6778348 12.151512,5.1953825 11.376333,5.9741808 10.716494,6.6340201 10.516026,6.8344885 10.406653,7.1139639 10.206185,7.3144323 9.803398,7.7172191 9.268728,7.9540196 8.84536,8.3350508 7.6186227,9.4391144 6.2646427,10.832194 5.698453,12.417525 c -0.641568,1.79639 0.00546,3.850239 0.4252579,5.613401 0.1133564,0.476097 0.1003908,0.981585 0.2551546,1.445876 0.080187,0.240562 0.2418045,0.446709 0.340206,0.680413 0.28904,0.68647 0.3765642,1.222967 0.7654638,1.871134 0.4588983,0.76483 1.1398146,1.363773 1.7860824,1.956185 0.8434883,0.773198 1.6270133,1.375594 2.7216493,1.786082 0.386507,0.14494 0.800641,0.205179 1.190722,0.340207 2.645643,0.915799 -0.320513,0.06871 1.786082,0.595359 0.400465,0.100118 0.782732,0.277439 1.190721,0.340207 0.168126,0.02588 0.342521,-0.02796 0.51031,0 0.176864,0.02948 0.335596,0.129786 0.510309,0.170103 0.65849,0.151961 1.287873,0.213386 1.956185,0.255156 0.508623,0.03179 1.197909,0.232209 1.701031,0 0.221434,-0.102201 0.390214,-0.293378 0.595361,-0.425259 0.468861,-0.301411 1.044356,-0.534046 1.445876,-0.935566 1.051085,-1.051085 1.688061,-2.42422 2.296392,-3.742268 0.229543,-0.268284 0.123872,-0.640182 0.255154,-0.935567 0.05757,-0.129535 0.191761,-0.213419 0.255155,-0.340206 0.164969,-0.329939 0.534014,-1.373851 0.595361,-1.701031 0.0418,-0.22292 -0.01509,-0.454111 0,-0.680412 0.06204,-0.930568 0.09287,-0.256121 0.170103,-1.105671 0.151611,-1.667731 -0.08682,-4.487476 -0.765464,-6.038659 C 25.043225,10.098803 23.391308,9.2173626 22.283503,8.1649478 21.527172,7.4464332 20.833115,6.5688831 19.987112,5.9536076 19.562821,5.6450328 19.075665,5.3727194 18.626287,5.1030924 18.23934,4.8709242 17.872064,4.4831282 17.435565,4.3376285 15.32828,3.6352001 13.354544,3.9747345 11.226803,4.4226802 10.829593,4.5063033 10.409179,4.517936 10.036082,4.6778348 9.9057904,4.7336738 9.8226628,4.8695955 9.6958755,4.9329894 8.8232266,5.3693137 9.5035338,4.9441072 8.6752571,5.358247 8.2957401,5.5480054 7.7084162,5.9307233 7.399484,6.2087622 7.2645523,6.3302007 7.18764,6.5056575 7.0592777,6.6340201 6.9027068,6.790591 6.7055393,6.9027068 6.5489685,7.0592777 5.0167813,8.5914648 3.6220677,11.015912 3.9974223,13.26804 c 0.1182386,0.709431 0.2231382,0.605772 0.5953608,1.275773 0.4044466,0.728004 0.8806989,1.521335 1.1907215,2.296392 0.076653,0.191633 0.095296,0.402999 0.170103,0.59536 0.7730667,1.987886 2.3933465,4.983232 3.9974225,6.463918 0.3584079,0.330838 0.7848799,0.579954 1.1907219,0.850515 1.175441,0.783627 2.550842,0.834955 3.912371,1.020618 0.939204,0.128074 1.864604,0.314423 2.8067,0.425258 1.175188,0.138257 3.699232,0.557788 4.762886,0.08505 0.210828,-0.0937 0.531502,-0.44645 0.680413,-0.595361 0.283505,-0.283505 0.602808,-0.535252 0.850515,-0.850516 0.936767,-1.192249 1.210926,-2.693842 1.701031,-4.082473 0.353806,-1.002451 1.00439,-1.85145 1.275774,-2.891753 0.22603,-0.866458 0.170103,-1.158793 0.170103,-2.041237 0,-1.470095 -0.06452,-2.890269 -0.340207,-4.337628 C 26.923341,11.282473 26.7125,10.03676 26.621132,9.7809269 26.565532,9.6252471 26.422471,9.511027 26.365977,9.3556693 26.307044,9.1936025 26.342831,9.0063151 26.280926,8.84536 26.198874,8.632026 26.042939,8.4544377 25.940719,8.2499992 25.650252,7.6690637 25.396644,6.9859061 25.005152,6.4639168 24.943821,6.3821415 24.822278,6.3660938 24.749998,6.2938139 23.957931,5.5017469 25.734609,6.8335498 23.984534,5.7835046 23.74143,5.6376425 23.546032,5.4210292 23.304122,5.2731954 21.752393,4.3249166 18.776957,3.3642228 16.925256,3.2319584 15.175101,3.1069473 12.8832,3.9989561 11.481958,5.0180408 11.336764,5.1236365 10.471741,5.8740635 10.376288,5.9536076 9.7569575,6.4697165 9.2003867,7.0465743 8.5902054,7.5695869 8.4922821,7.6535212 7.5862597,8.3136145 7.5695869,8.3350508 7.4595047,8.4765851 7.4853442,8.6879496 7.399484,8.84536 6.9948199,9.587244 7.1173323,8.9441734 6.8041231,9.6958755 6.2528627,11.018901 6.2938139,12.377412 6.2938139,13.778349 c 0,0.340206 -0.049857,0.684086 0,1.020619 0.064499,0.435366 0.270125,0.84127 0.3402062,1.275773 0.07237,0.448694 0.016965,0.91146 0.085051,1.360824 0.2334371,1.540685 1.0976804,5.006057 1.9561856,6.293814 0.7441582,1.116238 2.0434193,2.121318 3.0618553,2.976803 1.313941,1.103712 3.108642,2.678274 5.018041,2.296393 0.757161,-0.151432 1.726231,-0.668073 2.296392,-1.19072 0.775949,-0.711288 1.282826,-1.640367 2.126288,-2.296393 0.130488,-0.101491 0.29477,-0.153664 0.425258,-0.255155 0.861908,-0.670373 1.651925,-1.655919 2.381443,-2.466495 0.457688,-0.508542 0.479078,-0.370603 0.850515,-1.020618 0.634059,-1.109603 1.051124,-2.418411 1.360825,-3.657216 0.182382,-0.729528 0.150829,-3.07088 0.08505,-3.827319 -0.03426,-0.394024 -0.279022,-1.378182 -0.340207,-1.786083 -0.04227,-0.281767 -0.02636,-0.571708 -0.08505,-0.850515 C 25.651477,10.682153 25.163924,9.5567121 24.579895,8.7603084 23.892226,7.8225778 22.960731,6.8752047 21.943297,6.2938139 21.755834,6.186692 21.53804,6.1410225 21.347936,6.0386592 20.853445,5.7723945 20.363671,5.4413995 19.817009,5.2731954 19.625405,5.2142404 19.415052,5.2408905 19.221648,5.1881437 18.977008,5.121424 18.781798,4.928125 18.541236,4.8479378 c -0.357663,-0.119221 -1.307944,0.359743 -1.701031,0.4252576 -0.370992,0.061832 -0.810479,0 -1.190722,0"
       id="path890" />
    <path
       inkscape:export-filename="C:\Users\markr\work\oddduck\src\assets\icons\icon.png"
       inkscape:export-xdpi="25.399998"
       inkscape:export-ydpi="25.399998"
       style="fill:none;stroke:#000000;stroke-width:0.264583px;stroke-linecap:butt;stroke-linejoin:miter;stroke-opacity:1"
       d="m 15.564432,5.9536076 c 0.170103,0.113402 0.311106,0.2942362 0.510309,0.3402063 0.195334,0.045077 0.395402,-0.070769 0.595361,-0.085052 0.507383,-0.036242 1.107491,-0.042374 1.615979,0 0.398035,0.03317 0.832307,0.160999 1.190721,0.3402063 0.20406,0.1020296 0.376682,0.3315382 0.595361,0.4252576 0.107441,0.046046 0.241082,0.023098 0.340206,0.085052 0.384604,0.2403771 0.542135,0.7122379 0.850516,1.0206185 0.349071,0.3490708 0.788595,0.6242753 1.10567,1.0206185 1.049261,1.3115762 2.016289,2.9019602 2.551546,4.5077312 0.07393,0.221787 0.09147,0.460248 0.170103,0.680413 0.06396,0.179101 0.195014,0.329887 0.255155,0.510309 0.109066,0.3272 0.117658,0.67973 0.170103,1.020618 0.225474,1.465582 0.196291,2.865445 0,4.337629 -0.160448,1.203358 -0.412577,2.008267 -0.850516,3.146907 -0.06437,0.167353 -0.07507,0.358259 -0.170103,0.510309 -0.05418,0.08668 -0.175335,0.106247 -0.255154,0.170103 -1.241341,0.993073 -3.153963,1.080698 -4.677835,0.935567 C 19.274037,24.89269 18.99869,24.781926 18.711339,24.749998 17.586148,24.624977 16.437747,24.6605 15.309277,24.579895 14.610982,24.530017 13.936804,24.332974 13.26804,24.154637 13.015487,24.08729 12.747313,24.07631 12.502576,23.984534 12.28856,23.904278 12.108894,23.75189 11.907215,23.644328 10.939323,23.128118 10.101735,22.526313 9.1855663,21.943297 8.4702193,21.488076 7.0639857,20.81938 6.5489685,20.157215 6.2737629,19.803379 5.9655607,19.461171 5.7835046,19.051545 5.6522221,18.756159 5.6134016,18.427834 5.52835,18.115978 4.9409174,15.962058 5.3351121,14.105143 6.1237109,12.077318 6.5314689,11.028798 6.8417706,9.9050165 7.5695869,9.015463 8.1514004,8.3043578 8.8741539,7.9094863 9.6108239,7.399484 10.159472,7.0196508 10.633668,6.5322907 11.226803,6.2087622 c 0.13403,-0.073107 0.298227,-0.085416 0.425258,-0.170103 0.13344,-0.08896 0.193654,-0.2750716 0.340206,-0.3402062 0.129535,-0.057571 0.284209,0.014105 0.425258,0 1.423954,-0.1423953 -0.706984,-0.033224 0.935567,-0.170103 0.452041,-0.03767 0.907216,0 1.360824,0 2.156351,0 3.938299,0.062659 6.03866,0.6804122 1.08611,0.3194444 1.913549,1.0275776 2.636597,1.871134 0.109331,0.1275527 0.364089,0.5963049 0.425258,0.6804122 0.130236,0.1790742 0.305521,0.3240519 0.425258,0.5103093 0.137122,0.2133017 0.209743,0.4629739 0.340206,0.6804124 0.125475,0.2091259 0.29744,0.3876579 0.425257,0.5953609 0.09967,0.161969 0.13635,0.361803 0.255155,0.510309 0.113402,0.141753 0.311856,0.198454 0.425258,0.340206 0.217685,0.272107 0.900025,1.584728 1.020617,1.871134 0.837689,1.989508 1.08385,4.515976 0.680413,6.63402 -0.227372,1.193706 -0.180475,0.497569 -0.59536,1.445876 -0.300839,0.687631 -0.563403,1.429014 -0.850516,2.126289 -0.193156,0.469094 -0.870656,2.903836 -1.275773,3.146907 -0.07688,0.04612 -0.178278,0.03892 -0.255154,0.08505 -0.369707,0.221824 0.06971,0.207754 -0.510309,0.42526 -0.106182,0.03982 -0.229007,-0.02225 -0.340207,0 -0.175822,0.03516 -0.334486,0.134937 -0.510309,0.170103 -0.821925,0.164383 -1.720353,0.226861 -2.551546,0.340206 -2.331608,0.317945 -5.973787,0.700707 -8.079896,-0.595362 C 8.6785773,24.745499 7.9029513,19.990061 7.5695869,15.989689 7.4672564,14.761724 7.045871,12.769293 7.399484,11.567009 7.4710342,11.323738 7.6380526,11.118911 7.7396899,10.886597 8.4543424,9.2531057 8.85625,8.5735637 10.291236,7.399484 10.308116,7.385675 10.976594,6.8441762 11.0567,6.8041231 c 0.104552,-0.052276 0.233389,-0.037577 0.340206,-0.085052 0.721292,-0.3205739 0.119276,-0.2058858 0.850516,-0.4252576 1.328406,-0.3985218 2.811966,-0.3264998 4.167525,-0.2551547 1.177537,0.061976 0.346621,-0.012607 1.360825,-0.085052 1.058175,-0.075584 2.070084,0.179719 3.061855,0.5103092 0.195803,0.065268 0.410756,0.077801 0.595361,0.1701033 0.218133,0.1090665 0.386235,0.2997821 0.595361,0.4252576 0.217438,0.1304631 0.465381,0.205812 0.680412,0.3402063 1.218223,0.7613895 0.180924,0.2364763 1.190722,0.9355668 0.187927,0.1301038 0.402525,0.217493 0.59536,0.3402063 0.768813,0.4892441 1.392847,1.2628452 1.956186,1.9561847 0.320209,0.394104 0.683849,0.743223 0.935566,1.190722 0.751308,1.335657 0.919395,2.316755 1.275773,3.742268 0.287203,1.148809 0.558737,2.455902 0.42526,3.657216 -0.03947,0.355174 -0.181994,0.511484 -0.340207,0.850515 -0.106354,0.227903 -0.521237,1.214347 -0.680413,1.445876 -0.170736,0.248342 -0.407096,0.445082 -0.59536,0.680413 -0.859401,1.07425 -1.734353,1.86377 -2.806702,2.721649 -0.125231,0.100185 -0.206766,0.251246 -0.340206,0.340206 -1.085602,0.723735 -3.495764,0.729837 -4.762886,0.850516 -1.024645,0.09758 -2.0364,0.194833 -3.061855,0.255154 -0.985366,0.05796 -0.542225,0.139979 -1.530928,0.08505 -0.855578,-0.04753 -1.650336,-0.270263 -2.466495,-0.51031 -0.198008,-0.05824 -0.407963,-0.08361 -0.595361,-0.170103 -0.185621,-0.08567 -0.330307,-0.243282 -0.510309,-0.340206 -0.190103,-0.102363 -0.408861,-0.146363 -0.595361,-0.255154 -0.156803,-0.09147 -0.278446,-0.233435 -0.425257,-0.340207 C 9.9341524,24.513496 9.4258114,24.264236 9.015463,23.899483 8.2224963,23.194623 6.995687,21.775736 6.5489685,20.837627 6.3947905,20.513853 6.3221645,20.157215 6.2087622,19.817009 6.0670099,19.391751 5.8853628,18.977771 5.7835046,18.541236 5.3496618,16.681909 5.5376398,12.248944 6.3788655,10.461339 6.5196429,10.162187 6.7251407,9.8978833 6.8891747,9.6108239 7.5044756,8.5340474 8.0622747,7.4606718 9.1005147,6.7190715 9.2552713,6.6085312 9.4457006,6.5582731 9.6108239,6.4639168 10.178635,6.1394538 10.36264,5.9352897 10.971649,5.698453 c 1.077323,-0.418959 2.239604,-0.6016273 3.31701,-1.0206182 0.553598,-0.2152886 0.941391,-0.4774536 1.530927,-0.5953609 0.1668,-0.03336 0.342521,0.027965 0.510309,0 0.176865,-0.029478 0.334986,-0.1325337 0.51031,-0.170103 0.625554,-0.1340474 2.450682,-0.3330826 3.061855,-0.1701032 1.259652,0.335907 2.305024,1.3806147 3.31701,2.1262885 0.215319,0.1586558 0.471563,0.2581778 0.680413,0.4252577 0.629702,0.5037618 2.531967,2.6328084 2.806699,3.4020616 0.871461,2.4400825 0.159372,4.2360505 -0.340205,6.6340195 -0.179882,0.863434 -0.287701,1.765407 -0.425258,2.636598 -0.01514,0.09588 -0.137926,1.309127 -0.170103,1.445876 -0.269376,1.144849 -1.306803,3.133377 -1.956185,4.082474 -0.340358,0.497446 -0.801386,0.900701 -1.190722,1.360825 -0.511033,0.603949 -1.31135,1.481963 -2.041236,1.786083 -0.364612,0.151921 -0.874799,0.38516 -1.275774,0.425257 -0.394937,0.03949 -0.793814,0 -1.190721,0 -1.694657,0 -2.880142,-0.04528 -4.507732,-0.51031 C 12.284019,27.178347 11.00848,26.7246 9.7809269,26.110823 9.1690547,25.804886 9.033937,25.873735 8.4201024,25.43041 7.6297987,24.859635 6.8122019,24.068478 6.2087622,23.304122 5.0123935,21.788721 4.723845,19.950506 4.3376285,18.115978 3.9935572,16.481639 3.700182,13.315384 4.2525769,11.737112 4.3572876,11.437939 4.5477619,11.175647 4.6778348,10.886597 4.8848649,10.42653 5.0084263,9.956022 5.2731954,9.5257723 6.445323,7.6210651 8.1229542,6.506147 10.036082,5.4432984 c 0.985464,-0.5474801 3.352594,-0.4698444 4.42268,-0.4252576 0.777735,0.032406 3.246237,0.094571 3.997422,0.5953608 0.10008,0.06672 0.15001,0.196741 0.255155,0.2551546 0.15674,0.087078 0.353569,0.083025 0.510309,0.170103 0.263445,0.1463583 0.467311,0.3822599 0.680412,0.5953609 0.326339,0.3263389 0.647262,0.6602375 0.935567,1.0206185 0.142786,0.1784823 0.19388,0.4197691 0.340206,0.5953606 0.853393,1.024071 1.691007,2.1662828 2.381443,3.3170098 0.324269,0.540449 0.505403,1.128897 0.765464,1.701031 0.131163,0.288557 0.31568,0.55309 0.425258,0.850515 0.2066,0.560772 0.171685,1.031694 0.255154,1.61598 0.35961,2.517265 0.349711,4.079853 -0.170103,6.548968 -0.06165,0.292835 -0.21929,1.046445 -0.340206,1.360825 -0.728467,1.894015 0.247488,-1.016162 -0.510309,1.10567 -0.442344,1.238565 -0.672253,1.981137 -2.041237,2.551547 -1.841024,0.767093 -4.259748,0.788691 -6.208762,0.68041 -1.122153,-0.06234 -2.294495,-0.01781 -3.402062,-0.255153 C 11.49585,27.547525 10.636096,27.126068 9.8659785,26.791235 8.2860317,26.104301 6.9357861,25.109602 6.1237109,23.559276 5.6685014,22.69024 5.2649981,21.553907 5.1030924,20.582473 5.0423229,20.217856 5.0722118,19.842457 5.0180408,19.476802 4.9585542,19.075267 4.8094142,18.689323 4.7628861,18.286081 c -0.038996,-0.337964 0,-0.680413 0,-1.020619 0,-1.868121 0.314837,-3.639603 1.2757731,-5.273195 C 6.4546226,11.28513 6.9251633,10.553431 7.4845353,9.9510301 7.8391987,9.5690851 8.2565299,9.2457706 8.5902054,8.84536 8.7210837,8.688306 8.8048986,8.4964247 8.9304117,8.3350508 9.3335729,7.8167006 9.8992263,7.4172118 10.376288,6.9742261 11.303344,6.1133884 12.180863,5.1256142 13.353092,4.5927831 14.28293,4.170129 13.238666,4.660703 14.288659,4.3376285 14.66723,4.2211449 14.85009,4.0348359 15.224226,3.9974223 c 1.598199,-0.15982 3.345517,-0.2125993 4.932989,0.085052 0.202859,0.038036 0.392295,0.133182 0.595361,0.170103 0.195252,0.0355 0.404542,-0.054519 0.59536,0 0.148858,0.042531 1.980946,0.9603276 2.126289,1.1056701 0.08965,0.089652 0.09739,0.236338 0.170103,0.340206 0.470191,0.6717016 0.51209,0.4288192 0.935567,1.2757731 0.13564,0.2712807 0.687109,1.7278171 0.765464,2.0412369 0.05544,0.2217447 0.02616,0.4595609 0.08505,0.6804125 0.05563,0.2086208 0.186878,0.3905291 0.255155,0.5953601 0.204438,0.613316 0.370065,1.240038 0.510309,1.871134 0.193197,0.869387 0.278996,1.759033 0.425258,2.636598 0.05178,0.310694 0.316251,1.498628 0.340206,1.786082 0.157581,1.890968 -0.01971,4.082631 -0.935567,5.783505 -0.09692,0.180002 -0.242311,0.330833 -0.340206,0.510309 -0.511858,0.938407 0.142882,-0.03968 -0.340206,0.765464 -0.65736,1.095599 -1.587984,2.072671 -2.636598,2.806701 -1.572946,1.101063 -3.588056,2.081987 -5.52835,2.211339 -1.06818,0.07121 -0.487817,0.0056 -1.530928,-0.255153 -2.928308,-0.732079 0.831497,0.366156 -1.701031,-0.42526 C 13.337305,27.790974 12.759707,27.71761 12.16237,27.471648 10.832856,26.924201 11.873803,27.39267 10.971649,26.791235 9.1487831,25.575991 7.7162701,24.672342 6.4639168,22.793812 4.3600088,19.63795 4.4949969,14.969525 5.52835,11.481958 5.8221904,10.490246 6.1121345,9.4916439 6.6340201,8.5902054 7.2774296,7.4788616 8.125041,6.523854 9.1005147,5.698453 9.4437313,5.4080389 9.9711887,4.9943714 10.376288,4.7628861 c 0.287453,-0.1642588 0.327063,-0.03069 0.680412,-0.085051 0.765061,-0.1177018 1.525964,-0.3201995 2.296392,-0.4252579 0.249387,-0.034007 1.914175,-0.1473766 2.126288,-0.170103 2.239948,-0.2399945 4.177326,-0.7180378 6.293814,0.3402063 1.251769,0.6258845 2.221464,1.5440891 3.061855,2.6365975 0.232555,0.3023203 0.546736,0.5380463 0.765464,0.8505155 0.254477,0.3635388 0.386535,0.7991723 0.595361,1.1907215 0.107562,0.2016786 0.257362,0.3823332 0.340207,0.5953608 0.29377,0.7554072 0.451374,1.6027152 0.680411,2.3814422 0.369411,1.255993 0.871611,2.706031 1.020619,3.997423 0.305589,2.648446 -0.112715,5.629588 -1.871134,7.73969 -0.257954,0.309544 -0.464305,0.66787 -0.765464,0.935567 -0.731948,0.650621 -1.715964,0.869306 -2.551546,1.360825 -0.124176,0.07304 -1.258824,0.858545 -1.445876,0.935566 -0.550399,0.226636 -1.223644,0.237778 -1.786082,0.425259 -0.180422,0.06014 -0.329888,0.195014 -0.51031,0.255154 -0.863496,0.287832 -2.080991,0.383127 -2.976804,0.255153 C 15.459459,27.857609 14.645421,27.51999 13.778349,27.386595 11.475171,27.03226 10.056491,27.066799 8.2499992,25.260307 7.484243,24.494551 6.9848211,23.655859 6.4639168,22.708761 6.3232514,22.453005 6.139566,22.217187 6.0386592,21.943297 5.9387092,21.672004 5.9459373,21.371354 5.8685562,21.092782 5.8037257,20.859392 5.668881,20.648157 5.6134016,20.412369 5.5546014,20.162469 5.5906157,19.895965 5.52835,19.646905 5.4759839,19.437441 5.3309828,19.259579 5.2731954,19.051545 5.1883607,18.74614 5.1799684,18.423482 5.1030924,18.115978 4.8412613,17.068653 4.8255455,17.672651 4.7628861,16.670102 4.6030011,14.11194 5.4696556,10.951759 6.9742261,8.84536 7.3087001,8.3770965 7.9624207,7.7615884 8.3350508,7.3144323 8.4659291,7.1573783 8.5371128,6.9548258 8.6752571,6.8041231 8.7942682,6.6742926 9.8330538,5.7402939 10.036082,5.6134016 c 0.09912,-0.061953 0.230756,-0.044008 0.340206,-0.085052 1.125813,-0.4221797 2.207526,-0.2882699 3.402061,-0.3402063 0.911899,-0.039648 1.804821,-0.1267253 2.72165,-0.085051 0.312818,0.014219 0.622721,0.071449 0.935566,0.085051 0.254942,0.011083 2.036761,-0.012933 2.21134,0 0.371874,0.027546 0.735434,0.1256747 1.105671,0.1701033 1.344547,0.1613456 1.979961,0.2401549 3.061855,1.1056698 0.945783,0.7566263 1.707867,1.980113 2.041237,3.1469071 0.252412,0.8834435 0.331168,1.8259455 0.510309,2.7216495 0.03516,0.175823 0.126615,0.336358 0.170104,0.510309 0.07028,0.281115 0.116147,0.835896 0.170101,1.10567 0.33959,1.697949 0.790459,3.347225 0.595363,5.103093 -0.08968,0.807132 -0.228785,0.915137 -0.42526,1.701031 -0.07012,0.280487 -0.08244,0.575005 -0.170103,0.850515 -0.204322,0.642161 -0.496768,1.253135 -0.765463,1.871134 -0.511015,1.175335 -1.033963,2.479839 -1.956185,3.40206 -0.627767,0.627769 -1.915658,1.393846 -2.806701,1.53093 -0.890418,0.136988 -2.065844,0 -2.976804,0 -2.740035,0 -5.909807,-0.01926 -8.3350505,-1.445877 C 8.697408,26.273943 8.054352,25.069749 7.3144323,23.984534 6.7611556,23.173061 6.1162996,22.328373 5.698453,21.432988 4.6342603,19.152575 3.9157457,15.82988 4.6778348,13.353092 5.0501535,12.143055 5.777157,10.864793 6.5489685,9.8659785 6.9664471,9.3257124 7.4080909,8.7981608 7.9097932,8.3350508 8.2102373,8.0577178 8.60331,7.8999647 8.9304117,7.6546386 11.001381,6.1014115 13.673407,5.4432984 16.244844,5.4432984 c 0.47294,0 0.979078,-0.031648 1.445876,0.085052 0.234995,0.058749 0.448028,0.1868064 0.680412,0.2551546 0.250758,0.073752 0.517499,0.087448 0.765464,0.170103 0.975986,0.3253287 1.938051,0.8678833 2.72165,1.5309277 0.57172,0.4837639 0.312116,0.346216 0.765463,0.9355671 0.984993,1.2804901 1.813951,2.6630202 2.21134,4.2525762 0.05544,0.221745 0.03366,0.457697 0.08505,0.680413 0.07462,0.323336 0.259725,0.61364 0.340206,0.935567 0.508258,2.033032 0.41471,3.93022 -0.680412,5.783504 -1.406342,2.379963 -4.23733,3.576537 -6.548969,4.847938 -2.104864,1.157675 -3.499177,2.147142 -5.953608,1.445876 -0.198453,-0.0567 -0.410755,-0.0778 -0.59536,-0.170103 C 11.319591,26.11469 11.207744,25.956364 11.0567,25.855668 10.387362,25.409443 9.6152715,24.968186 9.1005147,24.32474 8.8544736,24.017189 8.7203058,23.634021 8.5051538,23.304122 8.4121758,23.161555 7.3360152,21.721614 7.2293807,21.518039 7.0754075,21.22409 7.0073061,20.892567 6.8891747,20.582473 5.8420191,17.833689 5.3236541,15.87723 6.0386592,12.927834 6.2661903,11.989269 6.414032,11.436722 6.9742261,10.631442 8.0756681,9.0481195 9.8195735,8.2306759 11.481958,7.399484 c 1.05451,-0.5272553 2.379983,-1.3603755 3.487113,-1.701031 0.574671,-0.1768218 1.106741,-0.1351447 1.701031,-0.170103 0.771055,-0.045356 1.60522,-0.1959406 2.381443,-0.085052 1.716037,0.2451483 3.535926,1.6564256 4.762886,2.8067008 1.099905,1.031161 2.211741,2.2121422 2.891751,3.5721652 0.695936,1.391871 1.335156,4.857517 1.105673,6.463917 -0.04186,0.293013 -0.18337,0.563365 -0.255157,0.850515 -0.617328,2.46931 -1.218866,4.904446 -3.146906,6.719072 -1.878271,1.767785 -4.205632,2.138024 -6.63402,1.530927 -1.712349,-0.428088 -1.081469,-0.411713 -2.806701,-1.020618 -2.441121,-0.861572 -0.465151,-0.06 -2.636598,-0.680412 C 11.211448,25.365272 9.9995068,24.869476 9.015463,24.239689 5.8323739,22.202512 4.7703831,20.438609 3.7422677,16.840205 3.3075874,15.318824 3.4171638,16.011147 3.31701,14.458762 3.1478858,11.837335 3.0994384,10.00528 4.9329894,7.9097932 6.8662705,5.7003289 11.006938,4.6436025 13.863401,4.1675255 c 0.86725,-0.1445418 1.762171,-0.085052 2.636598,-0.085052 2.508189,0 5.425542,0.1294212 7.399484,1.8711337 1.171327,1.0335249 1.963431,2.3441531 2.636598,3.7422679 0.171302,0.3557849 0.261856,0.7461879 0.425257,1.1056699 0.120783,0.265724 0.316855,0.494455 0.425257,0.765464 0.303533,0.758833 0.437057,1.589921 0.59536,2.381443 0.183155,0.915774 0.492779,1.776369 0.42526,2.72165 -0.124235,1.739267 -0.794795,3.390706 -1.360826,5.01804 -0.341768,0.982582 -0.60706,1.991285 -0.935566,2.976804 -0.114594,0.343781 -0.256394,1.064589 -0.51031,1.360825 -0.08218,0.09588 -0.895062,0.561878 -1.020618,0.595361 -0.916162,0.244311 -1.865905,0.346858 -2.806701,0.425257 C 17.343277,27.415548 12.68978,26.442108 9.3556693,23.304122 8.5949751,22.588174 7.8082535,21.770401 7.3144323,20.837627 5.178872,16.803791 7.0713221,11.586577 9.7809269,8.3350508 11.028582,6.8378651 12.664901,5.5824983 14.37371,4.6778348 c 0.404013,-0.2138894 0.768748,-0.50459 1.190722,-0.6804125 1.057071,-0.4404466 4.015515,0.3178865 5.103092,0.6804125 0.376391,0.1254633 0.505594,0.2551546 0.935567,0.2551546"
       id="path892" />
  </g>
</svg>
