<?xml version="1.0" encoding="UTF-8" standalone="no"?>
<!-- Created with Inkscape (http://www.inkscape.org/) -->

<svg
   width="210mm"
   height="297mm"
   viewBox="0 0 210 297"
   version="1.1"
   id="svg5"
   inkscape:version="1.1.1 (3bf5ae0d25, 2021-09-20)"
   sodipodi:docname="bird keychain.svg"
   xmlns:inkscape="http://www.inkscape.org/namespaces/inkscape"
   xmlns:sodipodi="http://sodipodi.sourceforge.net/DTD/sodipodi-0.dtd"
   xmlns="http://www.w3.org/2000/svg"
   xmlns:svg="http://www.w3.org/2000/svg">
  <sodipodi:namedview
     id="namedview7"
     pagecolor="#505050"
     bordercolor="#eeeeee"
     borderopacity="1"
     inkscape:pageshadow="0"
     inkscape:pageopacity="0"
     inkscape:pagecheckerboard="0"
     inkscape:document-units="mm"
     showgrid="false"
     inkscape:snap-others="false"
     inkscape:snap-global="false"
     inkscape:zoom="0.5499273"
     inkscape:cx="-1056.5033"
     inkscape:cy="249.12384"
     inkscape:window-width="3840"
     inkscape:window-height="2126"
     inkscape:window-x="-11"
     inkscape:window-y="-11"
     inkscape:window-maximized="1"
     inkscape:current-layer="layer1" />
  <defs
     id="defs2" />
  <g
     inkscape:label="Layer 1"
     inkscape:groupmode="layer"
     id="layer1">
    <path
       style="fill:none;stroke:#000000;stroke-width:0.264583px;stroke-linecap:butt;stroke-linejoin:miter;stroke-opacity:1"
       d="m -87.432988,-104.4433 -11.907218,13.268043 4.762887,13.608248 35.041238,29.938144 67.0206169,38.103092 72.1237121,32.999999 41.505152,15.649486 11.90722,-8.845362 -14.28866,3.402063 c 0,0 -3.40207,2.041236 -5.1031,1.020617 C 111.92783,33.680413 36.742266,-8.1649484 36.742266,-8.1649484 l -0.68041,-12.9278346 22.113401,-18.71134 22.113401,-11.907218 7.824743,1.701033 13.268039,10.206185 8.84536,2.041237 27.5567,-13.268042 -26.87629,9.185569 -6.1237,-3.061856 -12.24743,-17.690722 1.360826,-7.144329 -7.484535,3.40206 -32.319587,5.443299 -20.412371,2.381443 -14.628867,9.865979 -18.37113364,7.824743 -18.03092736,2.381443 -43.206185,-27.896907 -14.288659,-2.041237 -17.350517,-14.969071 -2.381443,-4.42268 z"
       id="path949" />
    <path
       style="fill:none;stroke:#000000;stroke-width:0.264583px;stroke-linecap:butt;stroke-linejoin:miter;stroke-opacity:1"
       d="m -6.9763009,2.0447778 -3.2475881,2.646183 -1.683935,4.57068 2.5259021,4.8112422 3.9692746,1.683934 4.4503989,-1.443372 2.405621,-2.28534 c 0,0 0.9622484,-3.0070263 1.2028105,-3.4881504 C 2.8867452,8.0588304 1.6839347,4.5706799 1.6839347,4.5706799 L -1.2028105,2.525902 -4.0895558,1.4433726 Z"
       id="path951" />
    <path
       style="fill:none;stroke:#000000;stroke-width:0.264583px;stroke-linecap:butt;stroke-linejoin:miter;stroke-opacity:1"
       d="m -12.990353,17.20019 4.8112417,2.646183 2.0447778,-0.120281"
       id="path953" />
    <path
       style="fill:none;stroke:#000000;stroke-width:0.264583px;stroke-linecap:butt;stroke-linejoin:miter;stroke-opacity:1"
       d="M -2.6461831,19.004406 0.12028105,17.440752 1.2028105,15.756817 1.4433726,12.028105"
       id="path955" />
    <path
       style="fill:none;stroke:#000000;stroke-width:0.264583px;stroke-linecap:butt;stroke-linejoin:miter;stroke-opacity:1"
       d="m -33.438131,-28.145766 -5.172086,5.292367 1.924497,5.051804 -3.48815,2.165059 4.450398,3.367869 -0.721686,1.804216 0.120282,1.4433723 3.848992,1.3230915 -3.007027,2.8867452 0.240565,0.7216862 3.247586,0.7216865 -2.766462,1.3230915 V 0 l 2.5259,0.9622484 c 0,0 -0.481124,1.0825294 -1.08253,0.8419673 -0.601403,-0.2405621 -3.007024,-0.4811242 -3.007024,-0.4811242 l 3.127307,2.5259019 1.563653,-0.3608429 -0.962248,1.0825294 2.766463,0.2405621 -0.721686,1.3230915 -2.766465,0.6014054 0.601406,1.4433724 2.766465,1.0825295 -2.525903,2.6461832 1.202812,0.962248 -1.924497,1.202811 -8.660236,1.683934 -5.292365,-0.841967 -0.841968,1.924497 3.367868,1.443372 -1.323091,1.443373 -3.848994,-0.360843 -0.240562,3.367869 4.330118,0.721686 -0.601404,1.323092 h -4.089556 l -0.240561,1.443373 -6.374898,1.683935 v 1.563653 l 1.08253,1.202809 -7.216862,2.766465 7.818268,-0.360844 2.285338,1.924497 -2.285338,2.04478 2.285338,2.165059 2.525903,-0.721689 v 3.367871 l 4.690962,0.721686 5.412647,3.48815 h -4.690962 l 0.841968,3.728714 -2.165059,6.014051 c 0,0 -0.841967,-0.601403 -0.841967,0.120282 0,0.721686 -0.601406,3.007027 -0.601406,3.007027 l 2.886747,-1.08253 -1.323092,2.525901 -3.488152,3.848994 2.165059,0.96225 1.563655,-1.202812 -1.443373,5.051803 -7.457424,5.292368 1.924494,1.08253 5.051806,-2.766465 -0.360844,4.089556 -4.811241,3.60843 0.841967,3.728714 5.412648,-1.924497 -0.721688,3.60843 -2.766463,1.443373 0.360842,2.646183 -8.17911,0.240562 0.240562,2.886747 7.457424,-0.481126 0.120282,0.962249 -3.48815,0.360844 0.12028,2.525901 1.443373,1.443373 1.804215,-0.96225 1.804215,1.202812 -1.082529,2.886745 2.646185,1.20281 2.5259,-1.44337 0.240562,1.44337 -3.007024,3.849 1.323091,2.28533 1.323092,-1.32309 0.360841,4.08956 -2.5259,3.60843 1.202809,1.08253 2.525903,-1.9245 1.082529,6.61546 -2.285341,3.24759 1.804217,2.28534 1.804215,-2.04478 5.172086,11.4267 15.997379,22.13171 17.20019,19.12469 15.877098,12.99035 h 0.601406"
       id="path957" />
    <path
       style="fill:none;stroke:#000000;stroke-width:0.264583px;stroke-linecap:butt;stroke-linejoin:miter;stroke-opacity:1"
       d="m 39.572464,160.5752 30.551387,14.79457 0.481126,-1.80422 z"
       id="path959" />
    <path
       style="fill:none;stroke:#000000;stroke-width:0.264583px;stroke-linecap:butt;stroke-linejoin:miter;stroke-opacity:1"
       d="m 46.308203,153.47862 22.492557,13.59176 2.525902,0.12028 0.360842,-1.32309 -0.841965,-1.20281 z"
       id="path961" />
    <path
       style="fill:none;stroke:#000000;stroke-width:0.264583px;stroke-linecap:butt;stroke-linejoin:miter;stroke-opacity:1"
       d="m 52.562818,148.66738 8.058829,5.77349 10.344171,5.77349 1.563654,-1.44338 z"
       id="path963" />
    <path
       style="fill:none;stroke:#000000;stroke-width:0.264583px;stroke-linecap:butt;stroke-linejoin:miter;stroke-opacity:1"
       d="m 59.899962,145.29951 7.457427,5.89377 4.570679,2.16506 1.323092,-1.08253 z"
       id="path965" />
    <path
       style="fill:none;stroke:#000000;stroke-width:0.264583px;stroke-linecap:butt;stroke-linejoin:miter;stroke-opacity:1"
       d="m 65.914015,142.41276 5.773489,4.4504 1.202812,0.12028 1.683935,-0.6014 z"
       id="path967" />
    <path
       style="fill:none;stroke:#000000;stroke-width:0.264583px;stroke-linecap:butt;stroke-linejoin:miter;stroke-opacity:1"
       d="m 66.515421,137.48124 4.089556,2.28534 1.443371,-0.84197 z"
       id="path969" />
    <path
       style="fill:none;stroke:#000000;stroke-width:0.264583px;stroke-linecap:butt;stroke-linejoin:miter;stroke-opacity:1"
       d="m 65.914015,125.33285 2.525903,0.72169 1.443371,-0.96225 z"
       id="path971" />
    <path
       style="fill:none;stroke:#000000;stroke-width:0.264583px;stroke-linecap:butt;stroke-linejoin:miter;stroke-opacity:1"
       d="m 79.024648,126.65594 17.561034,1.56366 3.36787,-1.80422 0.240558,-0.48112 -20.568056,-0.36084 -1.563653,0.72168 z"
       id="path973" />
    <path
       style="fill:none;stroke:#000000;stroke-width:0.264583px;stroke-linecap:butt;stroke-linejoin:miter;stroke-opacity:1"
       d="m 79.26521,119.79992 4.089556,0.96225 3.127309,-0.72168 v -1.08253 z"
       id="path975" />
    <path
       style="fill:none;stroke:#000000;stroke-width:0.264583px;stroke-linecap:butt;stroke-linejoin:miter;stroke-opacity:1"
       d="m 76.979872,116.19149 4.089556,-0.6014 -0.481124,-0.60141 z"
       id="path977" />
    <path
       style="fill:none;stroke:#000000;stroke-width:0.264583px;stroke-linecap:butt;stroke-linejoin:miter;stroke-opacity:1"
       d="m 82.873643,135.7973 29.228297,3.36787 2.16506,-1.56365 c 0,0 0.36084,-1.44337 -0.36085,-1.20281 -0.72168,0.24056 -29.589134,-1.20281 -29.589134,-1.20281 z"
       id="path979" />
    <path
       style="fill:none;stroke:#000000;stroke-width:0.264583px;stroke-linecap:butt;stroke-linejoin:miter;stroke-opacity:1"
       d="m 80.22746,141.33023 34.64094,5.29237 12.50923,0.96225 2.5259,-0.36085 0.36085,-1.68393 -43.301181,-3.72871 z"
       id="path981" />
    <path
       style="fill:none;stroke:#000000;stroke-width:0.264583px;stroke-linecap:butt;stroke-linejoin:miter;stroke-opacity:1"
       d="m 90.090505,149.26878 c 0,0 46.909615,5.41265 47.992145,5.41265 1.08252,0 9.38192,0.84197 9.38192,0.84197 l 1.92449,-1.32309 -27.9052,-3.48816 -29.589138,-2.64618 z"
       id="path983" />
    <path
       style="fill:none;stroke:#000000;stroke-width:0.264583px;stroke-linecap:butt;stroke-linejoin:miter;stroke-opacity:1"
       d="m 87.444322,155.76396 25.138738,3.48815 c 0,0 20.92891,2.40562 22.01144,2.16506 1.08252,-0.24056 13.35119,1.08253 13.35119,1.08253 l 4.57068,-2.88675 -30.67167,-1.80421 c 0,0 -22.973677,-2.04478 -25.61986,-2.40563 -2.646185,-0.36084 -9.02108,-0.36084 -9.02108,-0.36084 l -0.481123,0.84197 z"
       id="path985" />
    <path
       style="fill:none;stroke:#000000;stroke-width:0.264583px;stroke-linecap:butt;stroke-linejoin:miter;stroke-opacity:1"
       d="m 81.189707,160.33464 20.267363,3.06716 c 0,0 14.61414,2.22521 15.51625,2.28535 0.90211,0.0601 20.38764,2.88674 20.38764,2.88674 0,0 12.0281,1.44337 13.29106,1.26295 1.26294,-0.18042 6.85601,0.66155 7.03644,0.42099 0.18042,-0.24057 1.50351,-1.50352 1.26295,-1.50352 -0.24057,0 -20.56806,-1.56365 -21.28975,-1.80421 -0.72169,-0.24056 -20.80862,-2.46577 -23.87579,-2.70633 -3.06717,-0.24056 -21.530306,-3.06716 -21.831008,-3.06716 -0.300701,0 -10.043467,-1.26296 -10.043467,-1.26296 z"
       id="path987" />
    <path
       style="fill:none;stroke:#000000;stroke-width:0.264583px;stroke-linecap:butt;stroke-linejoin:miter;stroke-opacity:1"
       d="m 59.6594,193.53221 c 7.637846,-2.2252 49.97677,-13.9526 50.21734,-14.01274 0.24056,-0.0602 29.70942,-8.23926 30.31082,-8.47982 0.60141,-0.24056 31.09265,-9.08122 31.09265,-9.08122 l 0.30071,0.12028"
       id="path989" />
    <path
       style="fill:none;stroke:#000000;stroke-width:0.264583px;stroke-linecap:butt;stroke-linejoin:miter;stroke-opacity:1"
       d="m 79.746336,167.5515 48.713824,5.59307 5.77349,0.84197 1.26295,-2.28534 -54.367033,-4.69096 z"
       id="path991" />
    <path
       style="fill:none;stroke:#000000;stroke-width:0.264583px;stroke-linecap:butt;stroke-linejoin:miter;stroke-opacity:1"
       d="m 78.423245,174.76836 35.964035,4.1497 1.26295,-2.04478 -33.618555,-2.58604 -4.029414,-0.42098 z"
       id="path993" />
    <path
       style="fill:none;stroke:#000000;stroke-width:0.264583px;stroke-linecap:butt;stroke-linejoin:miter;stroke-opacity:1"
       d="m 168.03263,159.01155 c 0.24056,-0.0601 9.2015,3.78885 9.2015,3.78885 l 2.64618,-0.78183 -10.40431,-3.84899 z"
       id="path997" />
    <path
       style="fill:none;stroke:#000000;stroke-width:0.264583px;stroke-linecap:butt;stroke-linejoin:miter;stroke-opacity:1"
       d="m 168.39347,156.4255 c 0.42098,-0.18042 17.56103,4.93153 17.56103,4.93153 l 4.1497,0.54126 1.80421,-1.32309 c 0,0 -9.14135,-2.40562 -9.38192,-2.46576 -0.24056,-0.0601 -12.87007,-2.64618 -12.87007,-2.64618 z"
       id="path999" />
    <path
       style="fill:none;stroke:#000000;stroke-width:0.264583px;stroke-linecap:butt;stroke-linejoin:miter;stroke-opacity:1"
       d="m 180.18101,153.11778 c 6.01405,2.28533 6.6756,4.45039 7.21686,4.26997 0.54127,-0.18042 5.7735,-0.12028 5.7735,-0.12028 l -0.42099,-1.02239 c 0,0 -8.35953,-2.5259 -8.60009,-2.70632 -0.24057,-0.18042 -3.60844,-0.66155 -3.60844,-0.66155 z"
       id="path1001" />
    <path
       style="fill:none;stroke:#000000;stroke-width:0.264583px;stroke-linecap:butt;stroke-linejoin:miter;stroke-opacity:1"
       d="m 29.427834,207.27062 c 0,0 12.247424,2.89175 11.737115,2.8067 -0.51031,-0.085 -6.974229,0.0851 -6.974229,0.0851 l 1.360826,2.38144 -5.868556,2.72165 6.208763,2.21134 -12.332475,4.08248 0.255155,1.27577 7.73969,-1.27577 0.51031,1.61598 -1.275773,0.93556 -11.056701,5.1031 L 22.878866,231 c 0,0 -2.466495,0.85051 -1.61598,1.36082 0.850516,0.51031 3.317011,1.95619 3.317011,1.95619 l 2.29639,-1.19072 9.185569,-4.25258"
       id="path1003" />
    <path
       style="fill:none;stroke:#000000;stroke-width:0.264583px;stroke-linecap:butt;stroke-linejoin:miter;stroke-opacity:1"
       d="m 64.724226,196.21392 c -2.381443,0.59536 -15.139175,8.84535 -15.139175,8.84535 l -8.164949,-1.19072 6.123713,2.97681 -2.806703,1.02062"
       id="path1005" />
    <path
       style="fill:none;stroke:#000000;stroke-width:0.264583px;stroke-linecap:butt;stroke-linejoin:miter;stroke-opacity:1"
       d="m 72.634019,193.49227 -17.180412,15.90463 0.08505,2.21134 -3.912372,0.51031 -5.188143,5.69846 -8.335053,7.39948"
       id="path1007" />
    <path
       style="fill:none;stroke:#000000;stroke-width:0.264583px;stroke-linecap:butt;stroke-linejoin:miter;stroke-opacity:1"
       d="m 22.623711,235.93299 5.018042,0.93556 2.126287,-2.29639 -9.270618,4.84794 3.657217,1.36082 2.721648,-1.95618 -9.355669,4.16752 4.252578,1.27578 c 0,0 2.466494,-1.61598 1.956185,-1.61598 -0.510309,0 -8.25,4.16752 -8.25,4.16752 l 3.317011,1.61598 1.10567,-1.70103 c 0,0 -9.86598,5.01805 -9.35567,5.2732 0.510309,0.25515 3.657216,1.95619 3.657216,1.95619 l 3.146907,-2.21134 -8.4201027,15.56442 6.8041237,-9.01546 c 0,0 7.909794,8.67526 7.569587,8.93043 -0.340206,0.25514 3.317011,1.5309 3.317011,1.5309 l -2.806701,1.9562 -4.422681,-4.5928 -3.146907,-3.8273 -2.976804,3.40207 2.976804,0.42523 0.935567,-1.0206 2.296392,2.21133 -11.5670102,-2.46649 1.9561855,3.74226 -5.1030928,-0.8505 2.2113401,2.38143 -4.7628864,-0.59536 -0.8505155,1.70103 -9.9510308,-0.6804 -1.8711339,7.48453 -6.974227,-1.19073 1.701031,-3.9974 4.847938,-5.1031 -2.296392,-0.76547 -7.73969,-13.35309 -5.273196,0.59536 2.041237,2.4665 -0.765464,-3.40207 -4.337627,4.16753 2.466493,2.29639 -1.70103,-3.99742 -0.765463,4.33763 -5.103093,0.1701 -3.061856,-4.76289 2.891752,-3.1469 4.337627,-0.85052 0.170104,-1.87113 2.296392,-1.02062 c 0,0 1.701031,1.19072 1.786083,0.85051 0.08505,-0.3402 3.146907,-1.02062 3.146907,-1.02062 l 11.737113,16.32991 5.1881443,0.8505 4.8479381,1.10567 8.4201031,-8.33504"
       id="path1009" />
    <path
       style="fill:none;stroke:#000000;stroke-width:0.264583px;stroke-linecap:butt;stroke-linejoin:miter;stroke-opacity:1"
       d="m -8.0798968,256.00515 c -3.3170102,0.85052 -10.2061852,-1.27577 -10.2061852,-1.27577 l -16.329897,13.01289 4.847939,0.25514 2.891753,-2.63658 -2.211343,-2.97681 3.317012,1.02062 2.21134,-2.4665 -0.765464,-2.04123 2.296392,1.44587 4.252577,-2.72165 0.255155,-0.085"
       id="path1011" />
    <path
       style="fill:none;stroke:#000000;stroke-width:0.264583px;stroke-linecap:butt;stroke-linejoin:miter;stroke-opacity:1"
       d="m 15.139175,201.1469 0.680412,4.33763 -9.3556697,9.95103 c 0,0 3.8273197,1.19073 2.636598,1.53093 -1.1907215,0.34021 -3.9123712,1.70103 -3.9123712,1.70103 l 7.6546389,0.59536 -12.75773146,7.14434 1.36082476,1.53092 8.3350513,-1.53092 -0.170103,2.89175 c 0,0 -5.8685567,2.9768 -4.2525772,3.48711 1.6159792,0.51031 3.4020617,1.78608 3.4020617,1.78608 l -4.8479379,9.44072 -3.06185576,3.06186"
       id="path1013" />
    <path
       style="fill:none;stroke:#000000;stroke-width:0.264583px;stroke-linecap:butt;stroke-linejoin:miter;stroke-opacity:1"
       d="M 21.432989,204.29381 16.5,217.4768 l 1.615979,0.59536 -2.21134,2.4665 -3.82732,9.52577"
       id="path1015" />
    <path
       style="fill:none;stroke:#000000;stroke-width:0.264583px;stroke-linecap:butt;stroke-linejoin:miter;stroke-opacity:1"
       d="m 34.871133,7.9948452 -0.170103,3.2319588 2.21134,1.871134 -1.020617,2.21134 -2.21134,-1.360825 1.871133,6.804124 -3.231959,0.510309 4.082475,9.695877 0.850514,1.360824 2.21134,-0.850514 4.082476,5.103093 -2.891753,2.551546 9.695876,11.226803 -4.252577,1.020619 4.762886,2.041237 c 0,0 19.051545,8.675256 17.520619,10.716495 -1.530927,2.041237 12.927835,6.804123 12.927835,6.804123 l 4.592783,4.932989 -5.103093,-1.020619 15.309278,11.907218 -5.103093,-0.680413 c 0,0 19.391747,13.097938 19.902057,13.948456 0.51031,0.85051 6.80413,5.27319 6.80413,5.27319"
       id="path1017" />
    <path
       style="fill:none;stroke:#000000;stroke-width:0.264583px;stroke-linecap:butt;stroke-linejoin:miter;stroke-opacity:1"
       d="m 114.98969,107.67526 13.43814,6.97422"
       id="path1019" />
    <path
       style="fill:none;stroke:#000000;stroke-width:0.264583px;stroke-linecap:butt;stroke-linejoin:miter;stroke-opacity:1"
       d="m 134.21134,117.20103 28.23711,1.36082 2.89176,-0.51031"
       id="path1021" />
    <path
       style="fill:none;stroke:#000000;stroke-width:0.264583px;stroke-linecap:butt;stroke-linejoin:miter;stroke-opacity:1"
       d="m 173.16495,119.92268 5.6134,0.51031"
       id="path1023" />
    <path
       style="fill:none;stroke:#000000;stroke-width:0.264583px;stroke-linecap:butt;stroke-linejoin:miter;stroke-opacity:1"
       d="m 185.41237,128.42783 2.21134,0.68042 3.57216,-0.17011"
       id="path1025" />
    <path
       style="fill:none;stroke:#000000;stroke-width:0.264583px;stroke-linecap:butt;stroke-linejoin:miter;stroke-opacity:1"
       d="m 163.46907,128.93814 8.33505,2.72165 3.57217,0.51031"
       id="path1027" />
    <path
       style="fill:none;stroke:#000000;stroke-width:0.264583px;stroke-linecap:butt;stroke-linejoin:miter;stroke-opacity:1"
       d="m 163.97938,134.21134 9.35567,2.89175 5.4433,1.19072"
       id="path1029" />
    <path
       style="fill:none;stroke:#000000;stroke-width:0.264583px;stroke-linecap:butt;stroke-linejoin:miter;stroke-opacity:1"
       d="m 162.68012,136.27843 2.10492,1.38323"
       id="path1031" />
    <path
       style="fill:none;stroke:#000000;stroke-width:0.264583px;stroke-linecap:butt;stroke-linejoin:miter;stroke-opacity:1"
       d="m 169.83684,140.06728 2.88675,0.42099"
       id="path1033" />
    <path
       style="fill:none;stroke:#000000;stroke-width:0.264583px;stroke-linecap:butt;stroke-linejoin:miter;stroke-opacity:1"
       d="m 166.88995,143.31487 3.18745,1.26295"
       id="path1035" />
    <path
       style="fill:none;stroke:#000000;stroke-width:0.264583px;stroke-linecap:butt;stroke-linejoin:miter;stroke-opacity:1"
       d="m 189.92378,135.1959 c 0,0 24.11635,9.44206 24.65761,9.26164 0.54127,-0.18042 11.84769,1.74407 11.84769,1.74407"
       id="path1037" />
    <path
       style="fill:none;stroke:#000000;stroke-width:0.264583px;stroke-linecap:butt;stroke-linejoin:miter;stroke-opacity:1"
       d="m 191.78813,132.30915 14.91485,4.1497 7.57771,0.96225"
       id="path1039" />
    <path
       style="fill:none;stroke:#000000;stroke-width:0.264583px;stroke-linecap:butt;stroke-linejoin:miter;stroke-opacity:1"
       d="m 199.84696,149.4492 c 0.42099,-0.12028 17.20019,3.00703 17.20019,3.00703 l 9.62249,1.14267"
       id="path1041" />
    <path
       style="fill:none;stroke:#000000;stroke-width:0.264583px;stroke-linecap:butt;stroke-linejoin:miter;stroke-opacity:1"
       d="m 197.20078,154.62129 c 0.42098,-0.18042 15.39597,3.54829 15.75682,3.66857 0.36084,0.12028 8.41967,0.42098 8.41967,0.42098"
       id="path1043" />
    <path
       style="fill:none;stroke:#000000;stroke-width:0.264583px;stroke-linecap:butt;stroke-linejoin:miter;stroke-opacity:1"
       d="m -6.2938143,24.664948 1.7010308,4.762886 3.4871134,5.443299"
       id="path1045" />
    <path
       style="fill:none;stroke:#000000;stroke-width:0.264583px;stroke-linecap:butt;stroke-linejoin:miter;stroke-opacity:1"
       d="m -11.226804,23.559278 1.9561856,7.994845 3.3170103,4.082473"
       id="path1047" />
    <path
       style="fill:none;stroke:#000000;stroke-width:0.264583px;stroke-linecap:butt;stroke-linejoin:miter;stroke-opacity:1"
       d="m -13.693299,23.474226 1.530928,8.76031 2.041237,4.677834"
       id="path1049" />
    <path
       style="fill:none;stroke:#000000;stroke-width:0.264583px;stroke-linecap:butt;stroke-linejoin:miter;stroke-opacity:1"
       d="m -18.115979,22.113402 -0.170103,12.672681 2.636598,5.273196"
       id="path1051" />
    <path
       style="fill:none;stroke:#000000;stroke-width:0.264583px;stroke-linecap:butt;stroke-linejoin:miter;stroke-opacity:1"
       d="m -20.752577,22.708763 -0.170103,9.610824 0.340206,3.912372"
       id="path1053" />
    <path
       style="fill:none;stroke:#000000;stroke-width:0.264583px;stroke-linecap:butt;stroke-linejoin:miter;stroke-opacity:1"
       d="M 8.4201031,6.8041236 8.1649484,10.291237"
       id="path1055" />
    <path
       style="fill:none;stroke:#000000;stroke-width:0.264583px;stroke-linecap:butt;stroke-linejoin:miter;stroke-opacity:1"
       d="M 6.719072,13.693299 4.9329898,16.925258"
       id="path1057" />
    <path
       style="fill:none;stroke:#000000;stroke-width:0.264583px;stroke-linecap:butt;stroke-linejoin:miter;stroke-opacity:1"
       d="m 12.077319,10.631443 1.871134,3.657217 0.680413,0.08505"
       id="path1059" />
    <path
       style="fill:none;stroke:#000000;stroke-width:0.264583px;stroke-linecap:butt;stroke-linejoin:miter;stroke-opacity:1"
       d="m 12.118316,15.426044 1.112599,1.1126"
       id="path1061" />
    <path
       style="fill:none;stroke:#000000;stroke-width:0.264583px;stroke-linecap:butt;stroke-linejoin:miter;stroke-opacity:1"
       d="m 9.6525542,15.756817 1.9545668,1.804216"
       id="path1063" />
    <path
       style="fill:none;stroke:#000000;stroke-width:0.264583px;stroke-linecap:butt;stroke-linejoin:miter;stroke-opacity:1"
       d="M 9.1112894,18.192509 10.103608,19.5156"
       id="path1065" />
    <path
       style="fill:none;stroke:#000000;stroke-width:0.264583px;stroke-linecap:butt;stroke-linejoin:miter;stroke-opacity:1"
       d="m -40.144329,-21.603093 -8.249999,-0.680412 -24.920104,10.716495 -5.273196,5.1030927 0.255153,3.0618554 13.778352,5.3582475 c 0,0 9.865979,4.5077317 10.121135,4.5927834 0.255154,0.085052 11.226803,6.208763 11.226803,6.123711"
       id="path1067" />
    <path
       style="fill:none;stroke:#000000;stroke-width:0.264583px;stroke-linecap:butt;stroke-linejoin:miter;stroke-opacity:1"
       d="m -74.079895,0.42525772 -0.255157,7.05927818 5.188146,8.0798971 8.590206,6.208763 3.061856,0.255154 1.275773,1.530928 1.786083,2.636598"
       id="path1069" />
    <path
       style="fill:none;stroke:#000000;stroke-width:0.264583px;stroke-linecap:butt;stroke-linejoin:miter;stroke-opacity:1"
       d="m -86.412369,-122.47423 c -15.365721,-0.34694 -32.176091,16.90884 -39.123711,30.61856 -6.89447,13.604828 -7.34032,99.1368895 -5.78351,114.309278 12.25115,41.402042 30.586,46.911385 31.434026,68.558984 1.411277,117.085178 -12.175806,194.798908 39.64608,195.164498 0,0 123.18058,-0.92174 124.198246,-0.99927 28.347428,-2.15969 17.282767,-51.4532 37.082468,-68.04122 40.88264,-34.25113 125.46824,-4.36146 151.73196,-50.77578 7.94734,-14.04487 3.54447,-30.96466 -8.67525,-47.62886 -20.55987,-28.037748 -51.95503,-28.51834 -74.50516,-57.324744 -14.40137,-18.39686 -8.57579,-30.74795 -5.6134,-53.9226801 2.9233,-22.8688639 13.13006,-72.8473399 6.46391,-94.9175249 -4.7996,-15.890431 -29.53318,-34.162701 -44.73711,-40.824741 -43.506105,-19.06345 -96.74093,29.763675 -142.376283,29.76804 -31.255591,0.003 -38.494639,-23.27901 -69.742266,-23.98454 z"
       id="path1071"
       sodipodi:nodetypes="sscccssssssssss" />
    <path
       style="fill:none;stroke:#000000;stroke-width:0.264583px;stroke-linecap:butt;stroke-linejoin:miter;stroke-opacity:1"
       d="m -20.928903,101.27664 5.051805,3.60844 10.2238886,15.63653 c 0,0 9.7427652,17.8016 10.1036082,18.403 0.3608432,0.60141 18.7638432,30.31083 18.7638432,30.31083 l 19.004407,7.5777 24.657613,4.33012 -25.619863,-5.17209 -16.719065,-7.45742 c 0,0 -25.6198634,-41.73753 -25.6198634,-42.45921 0,-0.72169 -13.1106346,-24.05621 -13.1106346,-24.05621 l -1.804216,1.20281 z"
       id="path4168" />
    <path
       style="fill:none;stroke:#000000;stroke-width:0.264583px;stroke-linecap:butt;stroke-linejoin:miter;stroke-opacity:1"
       d="m -18.523282,96.22484 -2.886745,1.563653 -1.082529,0.721686"
       id="path4170" />
    <path
       style="fill:none;stroke:#000000;stroke-width:0.264583px;stroke-linecap:butt;stroke-linejoin:miter;stroke-opacity:1"
       d="m -25.980707,91.413596 c -0.841968,-0.240562 -2.5259,-0.12028 -2.5259,-0.12028 l -0.721689,2.525903"
       id="path4172" />
    <path
       style="fill:none;stroke:#000000;stroke-width:0.264583px;stroke-linecap:butt;stroke-linejoin:miter;stroke-opacity:1"
       d="m -30.310825,87.925446 -2.886744,3.728715"
       id="path4174" />
    <path
       style="fill:none;stroke:#000000;stroke-width:0.264583px;stroke-linecap:butt;stroke-linejoin:miter;stroke-opacity:1"
       d="m 24.296772,174.28724 12.990353,10.34417 24.17649,3.60843"
       id="path4176" />
    <path
       style="fill:none;stroke:#000000;stroke-width:0.264583px;stroke-linecap:butt;stroke-linejoin:miter;stroke-opacity:1"
       d="m 38.489934,182.70691 18.523284,-1.32309"
       id="path4178" />
    <circle
       style="fill:none;stroke:#000000;stroke-width:0.4;stroke-linecap:round;stroke-linejoin:round;stroke-dashoffset:15.1143;stroke-opacity:1;paint-order:markers fill stroke;stroke-miterlimit:4;stroke-dasharray:none"
       id="path4856"
       cx="125.36597"
       cy="-97.752708"
       r="9" />
  </g>
</svg>
