<?xml version="1.0" encoding="UTF-8" standalone="no"?>
<!-- Created with Inkscape (http://www.inkscape.org/) -->

<svg
   width="210mm"
   height="297mm"
   viewBox="0 0 210 297"
   version="1.1"
   id="svg5"
   sodipodi:docname="name.svg"
   inkscape:version="1.1.1 (3bf5ae0d25, 2021-09-20)"
   xmlns:inkscape="http://www.inkscape.org/namespaces/inkscape"
   xmlns:sodipodi="http://sodipodi.sourceforge.net/DTD/sodipodi-0.dtd"
   xmlns="http://www.w3.org/2000/svg"
   xmlns:svg="http://www.w3.org/2000/svg">
  <sodipodi:namedview
     id="namedview7"
     pagecolor="#505050"
     bordercolor="#eeeeee"
     borderopacity="1"
     inkscape:pageshadow="0"
     inkscape:pageopacity="0"
     inkscape:pagecheckerboard="0"
     inkscape:document-units="mm"
     showgrid="false"
     inkscape:zoom="4.3994184"
     inkscape:cx="214.80112"
     inkscape:cy="546.54952"
     inkscape:window-width="1682"
     inkscape:window-height="1111"
     inkscape:window-x="1463"
     inkscape:window-y="407"
     inkscape:window-maximized="0"
     inkscape:current-layer="layer1" />
  <defs
     id="defs2" />
  <g
     inkscape:label="Layer 1"
     inkscape:groupmode="layer"
     id="layer1">
    <text
       xml:space="preserve"
       style="font-size:10.5833px;line-height:1.25;font-family:impact;-inkscape-font-specification:impact;stroke-width:0.264583"
       x="49.329895"
       y="137.4433"
       id="text3950"><tspan
         sodipodi:role="line"
         id="tspan3948"
         style="font-style:normal;font-variant:normal;font-weight:bold;font-stretch:normal;font-family:'Splendid 66';-inkscape-font-specification:'Splendid 66 Bold';stroke-width:0.264583"
         x="49.329895"
         y="137.4433">oddduck</tspan></text>
    <g
       aria-label="oddduck"
       id="text75470"
       style="font-size:10.5833px;line-height:1.25;font-family:PUNKBABE;-inkscape-font-specification:PUNKBABE;stroke-width:0.264583"
       inkscape:export-filename="C:\Users\markr\Pictures\art\name.png"
       inkscape:export-xdpi="793.32507"
       inkscape:export-ydpi="793.32507">
      <path
         d="m 53.842972,163.78436 q 1.167884,0 1.922357,0.77514 0.790647,0.81132 0.790647,2.12907 0,1.03869 -0.485757,1.78283 -0.749306,1.14204 -2.237582,1.14204 -1.302242,0 -2.056716,-0.9095 -0.661456,-0.79065 -0.661456,-2.02054 0,-1.31775 0.785479,-2.11873 0.759641,-0.78031 1.943028,-0.78031 z m -0.0155,1.12138 q -0.656289,0 -1.033525,0.56843 -0.315226,0.47543 -0.315226,1.20406 0,0.55294 0.1757,0.96635 0.351398,0.81648 1.188554,0.81648 0.666624,0 1.033525,-0.5581 0.315226,-0.48059 0.315226,-1.22473 0,-0.75447 -0.335896,-1.22989 -0.377237,-0.5426 -1.028358,-0.5426 z"
         style="font-family:'UD Digi Kyokasho NP-B';-inkscape-font-specification:'UD Digi Kyokasho NP-B'"
         id="path100920" />
      <path
         d="m 61.594412,164.513 v -2.35127 c 0,-0.13436 0.04134,-0.24977 0.124023,-0.34623 0.127468,-0.14814 0.310058,-0.22221 0.547769,-0.22221 0.265271,0 0.458196,0.093 0.578774,0.27905 0.05512,0.0861 0.08268,0.18259 0.08268,0.28939 v 6.82643 c 0,0.15503 -0.0379,0.27905 -0.113688,0.37207 -0.103353,0.12747 -0.251491,0.1912 -0.444416,0.1912 -0.313503,0 -0.50126,-0.16536 -0.563271,-0.49609 l -0.08268,-0.44442 c -0.137803,0.26527 -0.32556,0.47715 -0.563271,0.63562 -0.347954,0.23082 -0.754474,0.34623 -1.21956,0.34623 -0.878497,0 -1.555456,-0.35484 -2.030878,-1.06453 -0.337618,-0.50298 -0.506427,-1.11448 -0.506427,-1.83451 0,-0.70279 0.182589,-1.31085 0.547768,-1.82417 0.499537,-0.70279 1.174774,-1.05419 2.02571,-1.05419 0.709687,0 1.248843,0.23254 1.617467,0.69763 z m -0.03477,2.27375 v -0.41341 c 0,-0.52365 -0.163163,-0.95445 -0.624804,-1.24728 -0.220486,-0.14125 -0.48075,-0.18932 -0.735686,-0.18932 -0.444416,0 -0.79926,0.18431 -1.064531,0.55294 -0.230821,0.32039 -0.346231,0.72174 -0.346231,1.20405 0,0.41686 0.08096,0.77171 0.242878,1.06454 0.258381,0.46853 0.642508,0.70279 1.152381,0.70279 0.334173,0 0.632173,-0.0633 0.894,-0.32508 0.351399,-0.34451 0.481993,-0.83936 0.481993,-1.34923 z"
         style="font-family:'UD Digi Kyokasho NP-B';-inkscape-font-specification:'UD Digi Kyokasho NP-B'"
         id="path100922"
         sodipodi:nodetypes="cscscsscscccscscscsscscscscs" />
      <path
         d="m 68.420847,164.513 v -2.35127 c 0,-0.13436 0.04134,-0.24977 0.124023,-0.34623 0.127468,-0.14814 0.310057,-0.22221 0.547768,-0.22221 0.265272,0 0.458197,0.093 0.578775,0.27905 0.05512,0.0861 0.08268,0.18259 0.08268,0.28939 v 6.82643 c 0,0.15503 -0.0379,0.27905 -0.113688,0.37207 -0.103353,0.12747 -0.251491,0.1912 -0.444416,0.1912 -0.313503,0 -0.50126,-0.16536 -0.563271,-0.49609 l -0.08268,-0.44442 c -0.137804,0.26527 -0.325561,0.47715 -0.563272,0.63562 -0.347953,0.23082 -0.754473,0.34623 -1.21956,0.34623 -0.878497,0 -1.555456,-0.35484 -2.030877,-1.06453 -0.337618,-0.50298 -0.506427,-1.11448 -0.506427,-1.83451 0,-0.70279 0.182589,-1.31085 0.547768,-1.82417 0.499537,-0.70279 1.174774,-1.05419 2.02571,-1.05419 0.709687,0 1.248843,0.23254 1.617467,0.69763 z m -0.03476,2.27375 v -0.41341 c 0,-0.52365 -0.163163,-0.95445 -0.624804,-1.24728 -0.220485,-0.14125 -0.480749,-0.18932 -0.735685,-0.18932 -0.444416,0 -0.79926,0.18431 -1.064531,0.55294 -0.230821,0.32039 -0.346231,0.72174 -0.346231,1.20405 0,0.41686 0.08096,0.77171 0.242878,1.06454 0.258381,0.46853 0.642508,0.70279 1.152381,0.70279 0.334173,0 0.632173,-0.0633 0.893999,-0.32508 0.351399,-0.34451 0.481993,-0.83936 0.481993,-1.34923 z"
         style="font-family:'UD Digi Kyokasho NP-B';-inkscape-font-specification:'UD Digi Kyokasho NP-B'"
         id="path100924"
         sodipodi:nodetypes="cscscsscscccscscscsscscscscs" />
      <path
         d="m 75.247282,164.513 v -2.35127 c 0,-0.13436 0.04134,-0.24977 0.124023,-0.34623 0.127468,-0.14814 0.310057,-0.22221 0.547768,-0.22221 0.265272,0 0.458197,0.093 0.578775,0.27905 0.05512,0.0861 0.08268,0.18259 0.08268,0.28939 v 6.82643 c 0,0.15503 -0.0379,0.27905 -0.113688,0.37207 -0.103353,0.12747 -0.251491,0.1912 -0.444416,0.1912 -0.313503,0 -0.50126,-0.16536 -0.563271,-0.49609 l -0.08268,-0.44442 c -0.137803,0.26527 -0.325561,0.47715 -0.563272,0.63562 -0.347953,0.23082 -0.754473,0.34623 -1.21956,0.34623 -0.878496,0 -1.555455,-0.35484 -2.030877,-1.06453 -0.337618,-0.50298 -0.506427,-1.11448 -0.506427,-1.83451 0,-0.70279 0.182589,-1.31085 0.547768,-1.82417 0.499537,-0.70279 1.174774,-1.05419 2.02571,-1.05419 0.709687,0 1.248843,0.23254 1.617467,0.69763 z m -0.03477,2.27375 v -0.41341 c 0,-0.52365 -0.163163,-0.95445 -0.624804,-1.24728 -0.220485,-0.14125 -0.480749,-0.18932 -0.735685,-0.18932 -0.444416,0 -0.79926,0.18431 -1.064531,0.55294 -0.230821,0.32039 -0.346231,0.72174 -0.346231,1.20405 0,0.41686 0.08096,0.77171 0.242878,1.06454 0.258381,0.46853 0.642508,0.70279 1.152381,0.70279 0.334173,0 0.632173,-0.0633 0.893999,-0.32508 0.351399,-0.34451 0.481993,-0.83936 0.481993,-1.34923 z"
         style="font-family:'UD Digi Kyokasho NP-B';-inkscape-font-specification:'UD Digi Kyokasho NP-B'"
         id="path100926"
         sodipodi:nodetypes="cscscsscscccscscscsscscscscs" />
      <path
         d="m 82.223578,168.59542 q -0.666624,0.99735 -1.917189,0.99735 -0.987017,0 -1.539953,-0.71313 -0.428913,-0.54777 -0.428913,-1.58129 v -2.86804 q 0,-0.2067 0.124023,-0.35139 0.19637,-0.22221 0.552936,-0.22221 0.403075,0 0.583942,0.27905 0.08268,0.12919 0.08268,0.29455 v 2.73885 q 0,0.45475 0.139526,0.75447 0.227375,0.49609 0.759641,0.49609 0.594277,0 1.095537,-0.59427 0.377237,-0.44959 0.377237,-0.89917 v -2.49597 q 0,-0.2222 0.144693,-0.37206 0.191202,-0.20154 0.532266,-0.20154 0.403075,0 0.583941,0.27905 0.08268,0.12919 0.08268,0.29455 v 4.56819 q 0,0.2067 -0.09819,0.35139 -0.144694,0.21188 -0.449584,0.21188 -0.490924,0 -0.563271,-0.51677 z"
         style="font-family:'UD Digi Kyokasho NP-B';-inkscape-font-specification:'UD Digi Kyokasho NP-B'"
         id="path100928" />
      <path
         d="m 87.525565,163.78436 q 1.116207,0 1.767328,0.64079 0.335896,0.33072 0.335896,0.66662 0,0.25321 -0.206705,0.43408 -0.186035,0.1602 -0.423746,0.1602 -0.268716,0 -0.449583,-0.22221 -0.439249,-0.53743 -1.033526,-0.53743 -0.676959,0 -1.085201,0.56844 -0.346231,0.48058 -0.346231,1.19888 0,0.72864 0.392739,1.21956 0.434081,0.53744 1.064532,0.53744 0.604612,0 1.095536,-0.61495 0.155029,-0.20154 0.397908,-0.20154 0.227375,0 0.428913,0.1757 0.232543,0.19637 0.232543,0.50643 0,0.27388 -0.237711,0.54777 -0.651121,0.7493 -1.917189,0.7493 -1.291907,0 -2.087722,-0.85782 -0.754473,-0.81132 -0.754473,-2.07739 0,-0.80615 0.356566,-1.4676 0.558104,-1.0387 1.705317,-1.33325 0.366901,-0.093 0.764809,-0.093 z"
         style="font-family:'UD Digi Kyokasho NP-B';-inkscape-font-specification:'UD Digi Kyokasho NP-B'"
         id="path100930" />
      <path
         d="m 92.295281,167.53089 v 1.44694 q 0,0.24804 -0.170532,0.3979 -0.201537,0.1757 -0.496092,0.1757 -0.43408,0 -0.599444,-0.31522 -0.05684,-0.11369 -0.05684,-0.25838 v -6.82644 q 0,-0.2067 0.12919,-0.34623 0.191202,-0.21187 0.527098,-0.21187 0.418578,0 0.594277,0.28938 0.07235,0.11886 0.07235,0.26872 v 3.85505 l 2.294426,-1.94819 q 0.232544,-0.19637 0.48059,-0.19637 0.232543,0 0.41341,0.17569 0.222208,0.22221 0.222208,0.49093 0,0.26872 -0.227376,0.44958 l -1.627802,1.30224 1.896519,2.08256 q 0.191202,0.21704 0.191202,0.49092 0,0.32556 -0.242879,0.50643 -0.232543,0.1757 -0.496092,0.1757 -0.299722,0 -0.511595,-0.25838 l -1.798334,-2.22725 z"
         style="font-family:'UD Digi Kyokasho NP-B';-inkscape-font-specification:'UD Digi Kyokasho NP-B'"
         id="path100932" />
    </g>
  </g>
</svg>
